<?xml version="1.0" standalone="no"?>
<!DOCTYPE svg PUBLIC "-//W3C//DTD SVG 20010904//EN"
 "http://www.w3.org/TR/2001/REC-SVG-20010904/DTD/svg10.dtd">
<svg version="1.0" xmlns="http://www.w3.org/2000/svg"
 width="512.000000pt" height="512.000000pt" viewBox="0 0 512.000000 512.000000"
 preserveAspectRatio="xMidYMid meet">
<metadata>
Created by potrace 1.14, written by Peter Selinger 2001-2017
</metadata>
<g transform="translate(0.000000,512.000000) scale(0.100000,-0.100000)"
fill="#000000" stroke="none">
<path d="M1463 3719 c-47 -14 -73 -52 -73 -110 0 -36 6 -55 24 -76 24 -27 27
-28 103 -24 169 9 200 7 230 -15 15 -11 39 -42 53 -70 l25 -49 0 -795 0 -796
-25 -49 c-19 -38 -37 -56 -70 -73 -47 -24 -53 -25 -212 -6 -56 7 -58 6 -93
-29 -30 -30 -35 -42 -35 -81 0 -36 6 -52 29 -78 24 -27 36 -32 87 -36 32 -2
111 4 174 13 141 21 388 21 615 0 385 -36 633 -4 855 111 196 100 332 259 426
492 113 282 124 668 27 976 -30 99 -100 240 -158 321 -56 78 -175 192 -251
238 -215 130 -507 171 -917 128 -244 -26 -379 -26 -572 -1 -164 22 -194 23
-242 9z m1268 -234 c208 -31 349 -111 453 -259 127 -179 180 -372 180 -651 0
-221 -32 -381 -106 -530 -150 -300 -381 -410 -823 -392 -168 7 -211 16 -255
54 -69 58 -65 2 -65 883 0 758 1 797 19 833 22 45 37 54 108 66 87 14 383 12
489 -4z"/>
</g>
</svg>
