<svg xmlns="http://www.w3.org/2000/svg" xmlns:xlink="http://www.w3.org/1999/xlink" width="44" height="44" viewBox="0 0 44 44">
    <defs>
        <linearGradient id="prefix__b" x1="34.303%" x2="79.515%" y1="13.935%" y2="96.2%">
            <stop offset="0%" stop-color="#FFDE00"/>
            <stop offset="100%" stop-color="#4EBE33"/>
        </linearGradient>
        <path id="prefix__a" d="M3.842 30.02v1.01c0 6.753 2.321 9.795 9.974 9.795h1.255c7.653 0 9.974-3.65 9.974-9.796v-1.156c0-12.35-18.38-6.814-18.38-16.184v-2.372c0-3.408 1.13-5.537 5.583-5.537h3.764c4.454 0 5.583 2.13 5.583 5.537v8.31c1.562.74 3.015 1.693 4.156 3.01 1.475 1.7 2.43 4.005 2.43 7.236v1.156c0 7.606-3.952 12.534-13.11 12.534h-1.255c-9.158 0-13.11-4.32-13.11-12.534v-1.01C.27 29.614 0 29.04 0 28.406c0-1.232 1.019-2.232 2.274-2.232 1.254 0 2.273 1 2.273 2.232 0 .635-.27 1.208-.705 1.614zm12.483 7.763h-3.763c-4.454 0-5.583-2.13-5.583-5.537V23.92C3.398 22.23.392 19.422.392 13.689v-1.156C.392 4.928 4.344 0 13.502 0h1.255c9.159 0 13.11 4.32 13.11 12.533v1.017c.435.407.706.98.706 1.616 0 1.233-1.018 2.233-2.273 2.233-1.255 0-2.274-1-2.274-2.233 0-.635.27-1.209.705-1.616v-1.017c0-6.753-2.32-9.795-9.974-9.795h-1.254c-7.654 0-9.975 3.65-9.975 9.795v1.156c0 12.351 18.38 6.815 18.38 16.184v2.373c0 3.407-1.129 5.537-5.583 5.537zm-6.21-12.654v7.117c0 1.886.627 2.799 2.447 2.799h3.763c1.82 0 2.447-.913 2.447-2.799v-2.373c0-2.748-4.246-3.319-8.657-4.744zm8.343-6.72v-7.092c0-1.886-.627-2.8-2.446-2.8h-3.764c-1.82 0-2.447.914-2.447 2.8v2.372c0 2.72 4.246 3.29 8.657 4.72z"/>
    </defs>
    <g fill="none" fill-rule="evenodd" transform="translate(8)">
        <mask id="prefix__c" fill="#fff">
            <use xlink:href="#prefix__a"/>
        </mask>
        <path fill="url(#prefix__b)" d="M3.842 30.02v1.01c0 6.753 2.321 9.795 9.974 9.795h1.255c7.653 0 9.974-3.65 9.974-9.796v-1.156c0-12.35-18.38-6.814-18.38-16.184v-2.372c0-3.408 1.13-5.537 5.583-5.537h3.764c4.454 0 5.583 2.13 5.583 5.537v8.31c1.562.74 3.015 1.693 4.156 3.01 1.475 1.7 2.43 4.005 2.43 7.236v1.156c0 7.606-3.952 12.534-13.11 12.534h-1.255c-9.158 0-13.11-4.32-13.11-12.534v-1.01C.27 29.614 0 29.04 0 28.406c0-1.232 1.019-2.232 2.274-2.232 1.254 0 2.273 1 2.273 2.232 0 .635-.27 1.208-.705 1.614zm12.483 7.763h-3.763c-4.454 0-5.583-2.13-5.583-5.537V23.92C3.398 22.23.392 19.422.392 13.689v-1.156C.392 4.928 4.344 0 13.502 0h1.255c9.159 0 13.11 4.32 13.11 12.533v1.017c.435.407.706.98.706 1.616 0 1.233-1.018 2.233-2.273 2.233-1.255 0-2.274-1-2.274-2.233 0-.635.27-1.209.705-1.616v-1.017c0-6.753-2.32-9.795-9.974-9.795h-1.254c-7.654 0-9.975 3.65-9.975 9.795v1.156c0 12.351 18.38 6.815 18.38 16.184v2.373c0 3.407-1.129 5.537-5.583 5.537zm-6.21-12.654v7.117c0 1.886.627 2.799 2.447 2.799h3.763c1.82 0 2.447-.913 2.447-2.799v-2.373c0-2.748-4.246-3.319-8.657-4.744zm8.343-6.72v-7.092c0-1.886-.627-2.8-2.446-2.8h-3.764c-1.82 0-2.447.914-2.447 2.8v2.372c0 2.72 4.246 3.29 8.657 4.72z" mask="url(#prefix__c)"/>
    </g>
</svg>
